<svg xmlns="http://www.w3.org/2000/svg" viewBox="0 0 1000 990"><g><g transform="scale(1)" style="transform-origin: center center;"><path d="M225.35,498c183.42,77.95,371.14,79.06,555.94,0,17.53-7.5,17.43-139.87,0-133.81-180.47,62.83-371.33,63.5-555.94,0C203.39,356.6,205.53,489.53,225.35,498Z" fill="#592d3d" stroke="#592d3d" stroke-miterlimit="10" stroke-width="12px"></path></g><path d="M610,758.72c90.76,0,72,114.24,72.87,241.28H610Z" fill="#D8985D"></path><path d="M632.74,831.87,610,870l11.38,130h31.76C653.91,819.73,632.74,831.87,632.74,831.87Z" fill="#C6854E"></path><path d="M233.25,500c0-147.32,119.43-266.75,266.75-266.75S766.75,352.68,766.75,500A266.22,266.22,0,0,1,668.1,707.12q-8.21,6.68-16.94,12.69C591,758,515,758,446.39,751.89c-6.66-1-13.3-2.26-19.89-3.71-26.33-5.8-51.82-14.75-75.37-27.8Q342.4,715,334.2,708.76a199.59,199.59,0,0,1-15.8-13.38q-7.14-6.63-13.79-13.78A265.86,265.86,0,0,1,233.25,500Z" fill="#D8985D"></path><path d="M269.61,634.48c.7,1.2,1.39,2.4,2.11,3.58.43.72.88,1.42,1.33,2.14.66,1.07,1.32,2.14,2,3.19.48.76,1,1.5,1.46,2.24.66,1,1.32,2,2,3,.51.76,1,1.52,1.56,2.28.66,1,1.32,1.92,2,2.88.54.77,1.1,1.53,1.65,2.3s1.34,1.85,2,2.77,1.15,1.53,1.73,2.29,1.37,1.8,2.07,2.7,1.19,1.51,1.79,2.26,1.41,1.76,2.12,2.63,1.23,1.49,1.85,2.23,1.44,1.72,2.17,2.57,1.27,1.47,1.91,2.2l2.22,2.5c.65.73,1.31,1.44,2,2.16.86.94,1.73,1.87,2.6,2.79l1.21,1.28c1.29,1.34,2.59,2.68,3.91,4l.26.27c1.29,1.28,2.6,2.55,3.91,3.81l1.58,1.5c.95.89,1.9,1.78,2.86,2.66l1.16,1.06c1,.94,2.09,1.86,3.14,2.78q4.9,4.27,10,8.19,8.19,6.24,16.93,11.62c23.55,13,49,22,75.37,27.8,6.59,1.45,13.23,2.7,19.89,3.71,42.1,3.75,87,5.18,129.28-3.08C508.45,729,185.59,612.74,388.8,257.48h0c-2.72,1.25-5.4,2.54-8.06,3.88l-.59.29c-1.22.61-2.44,1.24-3.65,1.88l-1,.53c-3.76,2-7.48,4.07-11.13,6.23l-.9.53c-1.16.69-2.31,1.39-3.46,2.1l-.87.54q-5.36,3.35-10.55,6.93l-1.08.75c-1.09.76-2.16,1.52-3.23,2.29l-.66.47q-3.27,2.39-6.46,4.84l-.62.48c-1,.78-2,1.58-3,2.39l-1.17.94c-1,.81-2,1.62-3,2.45l0,0c-2.11,1.75-4.19,3.55-6.24,5.37l-1.14,1-2.69,2.45L318,305q-4.28,4-8.37,8.17l-1.38,1.41c-.79.82-1.58,1.64-2.36,2.47-.46.49-.92,1-1.37,1.48q-2.06,2.2-4.06,4.46c-.45.51-.91,1-1.36,1.54-.71.81-1.41,1.63-2.11,2.45l-1.51,1.79c-.68.81-1.36,1.62-2,2.44-.54.66-1.08,1.33-1.61,2-1.07,1.33-2.12,2.66-3.16,4-.54.7-1.08,1.4-1.61,2.11s-1.2,1.59-1.79,2.4-1.07,1.45-1.59,2.18-1.13,1.55-1.68,2.33q-1.42,2-2.8,4.05c-.5.73-1,1.48-1.49,2.22s-1.1,1.66-1.64,2.5l-1.49,2.31-1.68,2.71c-.43.69-.86,1.38-1.28,2.07-.89,1.46-1.75,2.93-2.61,4.4l-1.22,2.16c-.54.95-1.08,1.91-1.61,2.87-.4.73-.8,1.46-1.19,2.19-.64,1.19-1.27,2.39-1.9,3.59l-1.2,2.34c-.64,1.28-1.28,2.55-1.91,3.84-.33.69-.67,1.39-1,2.09-.52,1.09-1,2.19-1.53,3.29-.31.66-.61,1.32-.91,2q-1.11,2.47-2.17,5c-.22.52-.43,1.05-.65,1.57-.53,1.27-1.05,2.54-1.56,3.82-.27.67-.53,1.34-.79,2-.5,1.26-1,2.53-1.45,3.8-.21.55-.42,1.1-.62,1.65q-.94,2.63-1.85,5.26l-.56,1.7q-.66,2-1.29,4l-.6,1.91c-.47,1.54-.93,3.08-1.37,4.63-.1.33-.2.66-.29,1q-.78,2.76-1.5,5.54c-.16.59-.3,1.19-.45,1.78-.35,1.39-.69,2.78-1,4.18l-.42,1.75c-.43,1.9-.85,3.8-1.24,5.71l-.15.77q-.51,2.55-1,5.1c-.11.61-.21,1.21-.32,1.82-.26,1.49-.51,3-.74,4.5-.08.51-.17,1-.24,1.52-.3,1.95-.57,3.91-.83,5.88l-.15,1.3c-.2,1.59-.38,3.19-.55,4.79-.06.6-.13,1.2-.19,1.81-.16,1.68-.31,3.37-.45,5.06,0,.35-.06.69-.08,1q-.22,3-.39,6.05c0,.53,0,1.07-.07,1.6q-.1,2.36-.18,4.71c0,.59,0,1.18,0,1.77,0,2.05-.08,4.11-.08,6.17,0,0,0,.07,0,.1,0,2.22,0,4.42.08,6.62,0,.76.06,1.52.08,2.28.05,1.47.1,2.94.17,4.41,0,.89.11,1.77.16,2.66.08,1.33.15,2.66.25,4,.07,1,.16,1.89.24,2.83.11,1.26.21,2.52.34,3.77.09,1,.21,1.94.31,2.91.14,1.21.27,2.43.42,3.64.12,1,.26,2,.39,2.95.16,1.18.32,2.37.5,3.55.15,1,.31,2,.47,3,.18,1.16.37,2.33.57,3.49.18,1,.36,2,.55,3,.21,1.15.43,2.3.65,3.44s.41,2,.62,3c.24,1.14.48,2.27.74,3.4s.44,2,.68,2.93c.26,1.13.54,2.25.82,3.36s.49,1.95.74,2.91c.3,1.12.6,2.23.91,3.34.26,1,.53,1.92.81,2.87.32,1.11.65,2.21,1,3.31s.58,1.89.88,2.84.7,2.19,1.06,3.28.62,1.87.94,2.8c.38,1.09.76,2.18,1.15,3.27.33.91.65,1.83,1,2.74l1.24,3.27c.35.89.69,1.79,1,2.68.44,1.09.89,2.19,1.34,3.28.36.86.71,1.73,1.08,2.59.47,1.12,1,2.22,1.45,3.33.37.82.73,1.65,1.1,2.47.52,1.16,1.07,2.3,1.6,3.44l1.08,2.3c.61,1.26,1.24,2.5,1.87,3.75.32.63.62,1.27.95,1.9q2.88,5.61,6,11.07C268.88,633.26,269.25,633.87,269.61,634.48Z" fill="#C6854E"></path><path d="M233.25,500c0-147.32,119.43-266.75,266.75-266.75S766.75,352.68,766.75,500A266.22,266.22,0,0,1,668.1,707.12q-8.21,6.68-16.94,12.69C591,758,515,758,446.39,751.89c-6.66-1-13.3-2.26-19.89-3.71-26.33-5.8-51.82-14.75-75.37-27.8Q342.4,715,334.2,708.76a199.59,199.59,0,0,1-15.8-13.38q-7.14-6.63-13.79-13.78A265.86,265.86,0,0,1,233.25,500Z" fill="none" stroke="#592d3d" stroke-miterlimit="10" stroke-width="12px"></path><path d="M386.12,758.72c-90.77,0-72,114.24-72.87,241.28h72.87Z" fill="#D8985D"></path><path d="M367.23,831.87,390,870l-11.39,130H346.88C346.07,819.73,367.23,831.87,367.23,831.87Z" fill="#C6854E"></path><path d="M619.47,1070H380.53a13.28,13.28,0,0,1-13.27-13.28V772a13.28,13.28,0,0,1,13.27-13.28H613.76c13.09,0,19,7.66,19,19.88v278.08A13.28,13.28,0,0,1,619.47,1070Z" fill="#D8985D"></path><path d="M629.05,766.62a19.33,19.33,0,0,1-2.51-4,17.25,17.25,0,0,0-8.28-3.51,28.88,28.88,0,0,0-4.5-.34H380.53A13.28,13.28,0,0,0,367.26,772c29,10.42,83.29,16.24,132.74,16.24C563.06,788.24,604.38,778.89,629.05,766.62Z" fill="#C6854E"></path><path d="M610,758.72c90.76,0,72,114.24,72.87,241.28H632.74" fill="none" stroke="#592d3d" stroke-linecap="square" stroke-miterlimit="10" stroke-width="12px"></path><path d="M386.12,758.72c-90.77,0-72,114.24-72.87,241.28h50.07" fill="none" stroke="#592d3d" stroke-linecap="square" stroke-miterlimit="10" stroke-width="12px"></path><path d="M380.53,758.82l233.23-.1" fill="none" stroke="#592d3d" stroke-miterlimit="10" stroke-width="12px"></path><path d="M380.53,1070H497.15C388,1070,396.24,838.82,367.26,838.82v217.86A13.28,13.28,0,0,0,380.53,1070Z" fill="#C6854E"></path><path d="M361.26,860.85c-.19-3.67-.11-7.34.05-11s.47-7.35.86-11c.2-1.84.4-3.67.65-5.51s.49-3.67.85-5.51a44.18,44.18,0,0,1,3.59-11,44.18,44.18,0,0,1,3.59,11c.36,1.84.62,3.67.85,5.51s.45,3.67.65,5.51c.38,3.67.68,7.34.85,11s.25,7.34.06,11Z" fill="#592d3d"></path><path d="M632.74,870v8c.26,34,.26,69,0,102.75,0,2.87,0,5.72,0,8.53v67.41A13.28,13.28,0,0,1,619.47,1070H380.53a13.28,13.28,0,0,1-13.27-13.28V998.52c0-2.51,0-5.07,0-7.65-.25-34.87-.25-69.87,0-105.3V860.85" fill="none" stroke="#592d3d" stroke-miterlimit="10" stroke-width="12px"></path><path d="M626.74,870c-.19-4.17-.1-8.35.06-12.53s.47-8.35.85-12.53c.2-2.09.41-4.18.65-6.27s.49-4.17.85-6.26a55.09,55.09,0,0,1,3.59-12.53,55.09,55.09,0,0,1,3.59,12.53c.36,2.09.62,4.18.85,6.26s.45,4.18.65,6.27c.38,4.18.69,8.35.85,12.53s.25,8.36.06,12.53Z" fill="#592d3d"></path><path d="M570.68,842.45C570.9,833,582.9,829,588.9,835a10.61,10.61,0,1,1-15.16,14.85A10.4,10.4,0,0,1,570.68,842.45Z" fill="#592d3d"></path><path d="M408.11,842.15C407.9,834,416.9,830,422.9,833c8,3,8,14,0,19-4,2-8,0-11.75-2.48A10.39,10.39,0,0,1,408.11,842.15Z" fill="#592d3d"></path><path d="M500,831.77a27.13,27.13,0,0,1,1.5,5.84,42.47,42.47,0,0,1,.49,5.84l.3,11.69c.09,3.89.21,7.79.25,11.69l.17,11.67c.23,15.57.22,31.16.28,46.74s.18,31.16,0,46.74c-.09,7.79-.3,15.58-.53,23.37-.1,3.89-.29,7.79-.67,11.68a92.5,92.5,0,0,1-1.77,11.69,92.5,92.5,0,0,1-1.77-11.69c-.38-3.89-.57-7.79-.67-11.68-.23-7.79-.44-15.58-.53-23.37-.2-15.58,0-31.16,0-46.74s0-31.15.18-46.73l.17-11.7.33-11.68.33-11.68a44.11,44.11,0,0,1,.5-5.84A27.13,27.13,0,0,1,500,831.77Z" fill="#C6854E"></path><path d="M425.22,883a18.51,18.51,0,0,1,4.67-1.5,29.75,29.75,0,0,1,4.68-.5l9.35-.33,18.7-.41c12.46-.19,24.91-.24,37.38-.27s24.93-.16,37.39,0c6.23.09,12.46.3,18.7.53,3.11.11,6.23.3,9.34.67a61.34,61.34,0,0,1,9.35,1.78,59.17,59.17,0,0,1-9.35,1.77c-3.11.38-6.23.57-9.34.67-6.24.23-12.47.43-18.7.52-12.46.19-24.92,0-37.39,0s-24.93,0-37.4-.15c-6.23-.06-12.46-.26-18.68-.5l-9.35-.34a29.5,29.5,0,0,1-4.67-.5A18.45,18.45,0,0,1,425.22,883Z" fill="#C6854E"></path><path d="M442.41,914.38a12.51,12.51,0,0,1,3.74-1.11,18.35,18.35,0,0,1,3.62-.15c2.39.1,4.78.16,7.17.21,4.78.11,9.56.15,14.34.17,9.63,0,19.09.08,28.76-.21s19.26-.43,28.88-.39c4.81,0,9.62.13,14.42.24a70.37,70.37,0,0,1,7.23.47,38.17,38.17,0,0,1,7.27,1.53,36.56,36.56,0,0,1-7.16,2,61.08,61.08,0,0,1-7.21.86c-4.82.35-9.64.65-14.45.82-9.64.36-19.27.32-28.88.45-4.81,0-9.61.22-14.48.1s-9.69-.13-14.52-.31-9.68-.58-14.5-1.08c-2.42-.27-4.82-.57-7.23-.9a16.82,16.82,0,0,1-3.57-.84A11.51,11.51,0,0,1,442.41,914.38Z" fill="#C6854E"></path><path d="M438.93,949.87a13.07,13.07,0,0,1,3.82-1.5,19.13,19.13,0,0,1,3.82-.49l7.63-.32c5.09-.18,10.19-.33,15.28-.41C479.66,947,489.84,947,500,947s20.36-.17,30.54,0c5.09.09,10.18.3,15.27.53a72.73,72.73,0,0,1,7.63.66A41.2,41.2,0,0,1,561.1,950a41.25,41.25,0,0,1-7.63,1.77,70.34,70.34,0,0,1-7.64.67c-5.09.23-10.18.44-15.27.53-10.18.2-20.37.06-30.55,0s-20.36-.06-30.54-.25c-5.09-.1-10.19-.28-15.28-.49l-7.63-.37a19.33,19.33,0,0,1-3.82-.5A12.85,12.85,0,0,1,438.93,949.87Z" fill="#C6854E"></path><path d="M680.7,905.78c.2-37.1-1.21-70.07-7.74-95.39-10.08-25.35-28.18-40.47-60.12-40.47l22.85,134.47S658.2,914.68,680.7,905.78Z" fill="#C6854E"></path><path d="M689.3,895.23a20.28,20.28,0,0,1-3.69,2.42" fill="none" stroke="#592d3d" stroke-linecap="square" stroke-miterlimit="10" stroke-width="12px"></path><path d="M329,809.32c-6.82,25.57-8,59.13-7.74,97,19.9,8.55,50.43-2.15,50.43-2.15L389,771.89C358.14,771.89,339.74,785.79,329,809.32Z" fill="#C6854E"></path><path d="M616.66,758.16l-38.44.1c0,53.72-75.33,111.14-75.33,111.14s-80.8-60.58-80.8-111.14l-38.66-.1a13.28,13.28,0,0,0-13.28,13.27v284.69a13.28,13.28,0,0,0,13.28,13.27H622.36a13.27,13.27,0,0,0,13.27-13.27V778C635.63,765.82,629.75,758.16,616.66,758.16Z" fill="#633749"></path><path d="M612.84,758.16c63.54,0,73.4,56,73.9,133.16-18.59,11.62-48.91,1.32-48.91,1.32Z" fill="#633749"></path><path d="M635.63,831.31,612.84,869.4l11.39,130h11.6V893.78l17.28,2.89C647.49,824.5,635.63,831.31,635.63,831.31Z" fill="#5E3244"></path><path d="M389,758.16c-61.78,0-75.82,53.79-76.85,127.66,19,19.85,57.95,4.58,57.95,4.58Z" fill="#633749"></path><path d="M370.12,831.31V890.4l-17.31,4.3C358.48,824.63,370.12,831.31,370.12,831.31Z" fill="#5E3244"></path><path d="M612.84,758.16c67.42,0,78.45,56.28,78.9,133.78-26.2,12.42-53.91.7-53.91.7" fill="none" stroke="#592d3d" stroke-linecap="square" stroke-miterlimit="10" stroke-width="12px"></path><path d="M389,758.16c-66.79,0-80.08,54.69-80.75,130.71,20.59,14.79,61.85,1.53,61.85,1.53" fill="none" stroke="#592d3d" stroke-linecap="square" stroke-miterlimit="10" stroke-width="12px"></path><path d="M383.43,1069.39H500c-109.19,0-100.91-231.14-129.89-231.14v217.87A13.28,13.28,0,0,0,383.43,1069.39Z" fill="#5E3244"></path><path d="M364.15,860.29c-.19-3.67-.11-7.35.06-11s.47-7.34.85-11c.2-1.83.41-3.67.65-5.51s.49-3.67.85-5.5a44.05,44.05,0,0,1,3.59-11,44.05,44.05,0,0,1,3.59,11c.36,1.83.62,3.67.85,5.5s.45,3.68.65,5.51q.58,5.52.86,11c.16,3.67.24,7.35,0,11Z" fill="#592d3d"></path><path d="M635.63,869.4v8c.26,34,.26,69,0,102.76,0,2.87,0,5.72,0,8.53v67.41a13.27,13.27,0,0,1-13.27,13.27H383.43a13.28,13.28,0,0,1-13.28-13.27V990.3c-.26-34.86-.26-69.86,0-105.3V860.29" fill="none" stroke="#592d3d" stroke-miterlimit="10" stroke-width="12px"></path><path d="M629.63,869.4c-.19-4.18-.1-8.36.06-12.53s.47-8.36.86-12.53c.2-2.09.4-4.18.64-6.27s.49-4.18.86-6.27a54.83,54.83,0,0,1,3.58-12.53,54.37,54.37,0,0,1,3.59,12.53c.36,2.09.63,4.18.85,6.27s.45,4.18.65,6.27c.39,4.17.69,8.35.85,12.53s.26,8.35.06,12.53Z" fill="#592d3d"></path><path d="M383.43,758.26l233.23-.1" fill="none" stroke="#592d3d" stroke-miterlimit="10" stroke-width="12px"></path><path d="M310.72,891.94a24.84,24.84,0,0,0,3.68,2.76" fill="none" stroke="#592d3d" stroke-linecap="square" stroke-miterlimit="10" stroke-width="12px"></path><path d="M677.59,882.13a20.25,20.25,0,0,1-6.75,2.52,34.91,34.91,0,0,1-7.21.64,39.94,39.94,0,0,1-7.17-.78c-1.18-.22-2.34-.57-3.49-.87s-2.28-.78-3.38-1.24c1.21,0,2.39.17,3.56.27l3.52.29c1.17,0,2.33.2,3.5.21s2.33.11,3.49.12c2.32.05,4.64,0,7-.18A50.81,50.81,0,0,0,677.59,882.13Z" fill="#592d3d"></path><path d="M578.22,758.26c0,53.72-75.33,111.14-75.33,111.14s-80.8-60.58-80.8-111.14" fill="none" stroke="#592d3d" stroke-miterlimit="10" stroke-width="12px"></path><g transform="translate(0 30)"><path d="M566.88,917.83c0-8.86-11.1-17.26-28.11-22.47,3.93-17.34,2.18-31.13-5.51-35.55a9.56,9.56,0,0,0-6.08-1.56c-8,.13-17.31,5.35-27.23,14.62C490,863.65,479,858.2,472.71,858.36c-3.16.09-4.37.52-6.16,1.56-7.67,4.41-9.38,18.18-5.43,35.47-17,5.23-28,13.61-28,22.44s11.1,17.26,28.11,22.47c-3.93,17.34-2.18,31.13,5.51,35.55a11.93,11.93,0,0,0,6.13,1.53c7.5,0,17.31-5.35,27.24-14.62,9.92,9.22,19.74,14.51,27.24,14.51a12.11,12.11,0,0,0,6.16-1.53c7.66-4.42,9.38-18.19,5.42-35.47C555.84,935.06,566.88,926.66,566.88,917.83Zm-39.72-53.49v0a6.32,6.32,0,0,1,3.1.71c3.71,2.13,5.32,10.23,4.07,20.64-.3,2.56-.79,5.26-1.39,8a133,133,0,0,0-17.32-3,132.78,132.78,0,0,0-11.34-13.63C513.16,868.87,521.49,864.35,527.16,864.34Zm-51.32,67.45q1.92,3.27,3.93,6.38c-3.87-.57-7.61-1.28-11.18-2.15,1-3.52,2.26-7.15,3.68-10.77C473.39,927.43,474.56,929.61,475.84,931.79Zm-7.33-32.15c3.57-.84,7.33-1.58,11.23-2.15-1.33,2.1-2.67,4.25-3.92,6.46s-2.43,4.36-3.55,6.54A114.8,114.8,0,0,1,468.51,899.64Zm6.95,18.27c1.69-3.65,3.6-7.31,5.65-10.88s4.3-7.17,6.57-10.41c4.06-.36,8.18-.55,12.32-.55s8.23.19,12.27.52c2.26,3.24,4.47,6.71,6.6,10.36s4,7.2,5.67,10.85c-1.72,3.66-3.6,7.31-5.65,10.88s-4.3,7.17-6.57,10.42c-4.06.35-8.18.54-12.32.54s-8.23-.19-12.27-.52c-2.26-3.24-4.47-6.7-6.6-10.36S477.18,921.56,475.46,917.91Zm48.7,13.8c1.25-2.18,2.42-4.39,3.54-6.57A114.8,114.8,0,0,1,531.46,936c-3.57.87-7.33,1.61-11.23,2.18C521.57,936.07,522.9,933.92,524.16,931.71Zm0-27.84c-1.25-2.18-2.59-4.31-3.93-6.38q5.82.85,11.18,2.15c-1,3.52-2.26,7.15-3.68,10.77C526.58,908.23,525.41,906.05,524.13,903.87ZM507.5,890.15c-2.46-.1-5-.19-7.5-.19s-5.1.06-7.58.19a105.71,105.71,0,0,1,7.5-8.72A114.37,114.37,0,0,1,507.5,890.15Zm-37.93-25a6.08,6.08,0,0,1,3.14-.71v0c5.64,0,14,4.5,22.9,12.71a129.42,129.42,0,0,0-11.26,13.6,129.07,129.07,0,0,0-17.34,3c-.63-2.72-1.09-5.37-1.42-7.9C464.31,875.43,465.89,867.33,469.57,865.18Zm-6.87,69.23c-2.7-.85-5.26-1.78-7.63-2.78-9.66-4.12-15.9-9.52-15.9-13.8s6.24-9.71,15.9-13.8c2.34-1,4.9-1.91,7.55-2.75a130.83,130.83,0,0,0,6.13,16.6A130.68,130.68,0,0,0,462.7,934.41Zm10.12,36.91a6.43,6.43,0,0,1-3.08-.73c-3.71-2.13-5.32-10.23-4.07-20.64.3-2.57.79-5.26,1.39-8a131.33,131.33,0,0,0,17.32,3,131.87,131.87,0,0,0,11.34,13.64C486.83,966.8,478.49,971.32,472.82,971.32Zm27.23-17.09a114.59,114.59,0,0,1-7.58-8.73c2.46.11,5,.19,7.5.19s5.1-.05,7.58-.19A105.91,105.91,0,0,1,500.05,954.23Zm30.38,16.25a6.08,6.08,0,0,1-3.14.71c-5.64,0-14-4.5-22.9-12.71a129.42,129.42,0,0,0,11.26-13.6,129.07,129.07,0,0,0,17.34-3,75.63,75.63,0,0,1,1.42,7.93C535.69,960.23,534.11,968.32,530.43,970.48Zm14.48-38.85c-2.35,1-4.91,1.9-7.56,2.75a131.52,131.52,0,0,0-6.13-16.61,129,129,0,0,0,6-16.52c2.7.85,5.26,1.77,7.66,2.78,9.66,4.12,15.9,9.52,15.9,13.8S554.56,927.54,544.91,931.63Z" stroke="#ffffff" stroke-width="16px"></path><circle cx="499.97" cy="917.83" r="12.46" stroke="#ffffff" stroke-width="24px"></circle><path d="M566.88,917.83c0-8.86-11.1-17.26-28.11-22.47,3.93-17.34,2.18-31.13-5.51-35.55a9.56,9.56,0,0,0-6.08-1.56c-8,.13-17.31,5.35-27.23,14.62C490,863.65,479,858.2,472.71,858.36c-3.16.09-4.37.52-6.16,1.56-7.67,4.41-9.38,18.18-5.43,35.47-17,5.23-28,13.61-28,22.44s11.1,17.26,28.11,22.47c-3.93,17.34-2.18,31.13,5.51,35.55a11.93,11.93,0,0,0,6.13,1.53c7.5,0,17.31-5.35,27.24-14.62,9.92,9.22,19.74,14.51,27.24,14.51a12.11,12.11,0,0,0,6.16-1.53c7.66-4.42,9.38-18.19,5.42-35.47C555.84,935.06,566.88,926.66,566.88,917.83Zm-39.72-53.49v0a6.32,6.32,0,0,1,3.1.71c3.71,2.13,5.32,10.23,4.07,20.64-.3,2.56-.79,5.26-1.39,8a133,133,0,0,0-17.32-3,132.78,132.78,0,0,0-11.34-13.63C513.16,868.87,521.49,864.35,527.16,864.34Zm-51.32,67.45q1.92,3.27,3.93,6.38c-3.87-.57-7.61-1.28-11.18-2.15,1-3.52,2.26-7.15,3.68-10.77C473.39,927.43,474.56,929.61,475.84,931.79Zm-7.33-32.15c3.57-.84,7.33-1.58,11.23-2.15-1.33,2.1-2.67,4.25-3.92,6.46s-2.43,4.36-3.55,6.54A114.8,114.8,0,0,1,468.51,899.64Zm6.95,18.27c1.69-3.65,3.6-7.31,5.65-10.88s4.3-7.17,6.57-10.41c4.06-.36,8.18-.55,12.32-.55s8.23.19,12.27.52c2.26,3.24,4.47,6.71,6.6,10.36s4,7.2,5.67,10.85c-1.72,3.66-3.6,7.31-5.65,10.88s-4.3,7.17-6.57,10.42c-4.06.35-8.18.54-12.32.54s-8.23-.19-12.27-.52c-2.26-3.24-4.47-6.7-6.6-10.36S477.18,921.56,475.46,917.91Zm48.7,13.8c1.25-2.18,2.42-4.39,3.54-6.57A114.8,114.8,0,0,1,531.46,936c-3.57.87-7.33,1.61-11.23,2.18C521.57,936.07,522.9,933.92,524.16,931.71Zm0-27.84c-1.25-2.18-2.59-4.31-3.93-6.38q5.82.85,11.18,2.15c-1,3.52-2.26,7.15-3.68,10.77C526.58,908.23,525.41,906.05,524.13,903.87ZM507.5,890.15c-2.46-.1-5-.19-7.5-.19s-5.1.06-7.58.19a105.71,105.71,0,0,1,7.5-8.72A114.37,114.37,0,0,1,507.5,890.15Zm-37.93-25a6.08,6.08,0,0,1,3.14-.71v0c5.64,0,14,4.5,22.9,12.71a129.42,129.42,0,0,0-11.26,13.6,129.07,129.07,0,0,0-17.34,3c-.63-2.72-1.09-5.37-1.42-7.9C464.31,875.43,465.89,867.33,469.57,865.18Zm-6.87,69.23c-2.7-.85-5.26-1.78-7.63-2.78-9.66-4.12-15.9-9.52-15.9-13.8s6.24-9.71,15.9-13.8c2.34-1,4.9-1.91,7.55-2.75a130.83,130.83,0,0,0,6.13,16.6A130.68,130.68,0,0,0,462.7,934.41Zm10.12,36.91a6.43,6.43,0,0,1-3.08-.73c-3.71-2.13-5.32-10.23-4.07-20.64.3-2.57.79-5.26,1.39-8a131.33,131.33,0,0,0,17.32,3,131.87,131.87,0,0,0,11.34,13.64C486.83,966.8,478.49,971.32,472.82,971.32Zm27.23-17.09a114.59,114.59,0,0,1-7.58-8.73c2.46.11,5,.19,7.5.19s5.1-.05,7.58-.19A105.91,105.91,0,0,1,500.05,954.23Zm30.38,16.25a6.08,6.08,0,0,1-3.14.71c-5.64,0-14-4.5-22.9-12.71a129.42,129.42,0,0,0,11.26-13.6,129.07,129.07,0,0,0,17.34-3,75.63,75.63,0,0,1,1.42,7.93C535.69,960.23,534.11,968.32,530.43,970.48Zm14.48-38.85c-2.35,1-4.91,1.9-7.56,2.75a131.52,131.52,0,0,0-6.13-16.61,129,129,0,0,0,6-16.52c2.7.85,5.26,1.77,7.66,2.78,9.66,4.12,15.9,9.52,15.9,13.8S554.56,927.54,544.91,931.63Z" fill="#61dafb"></path><circle cx="499.97" cy="917.83" r="12.46" fill="#61dafb"></circle></g><path d="M271.4,576.82c-1-28.36,18-52.36,43.28-63.56a62.37,62.37,0,0,1,8.16-2.7,70,70,0,0,1,42.21,2.68A71.67,71.67,0,0,1,374,517.4c29.53,15.88,42.79,53.25,31.36,83.46a61.68,61.68,0,0,1-4.18,8.82,54.68,54.68,0,0,1-17.51,20.83,69.25,69.25,0,0,1-7.85,5c-27.38,13-64.38,9-86.45-11.4a69.35,69.35,0,0,1-6.11-7.47,64.89,64.89,0,0,1-5.57-9.5A55.78,55.78,0,0,1,272,585.39,75.67,75.67,0,0,1,271.4,576.82Z" fill="#C6854E"></path><path d="M269.77,558.47c-1-28.36,18-52.36,43.28-63.56a62.23,62.23,0,0,1,8.15-2.7,70,70,0,0,1,42.22,2.68,71.54,71.54,0,0,1,8.92,4.16c29.53,15.89,42.79,53.25,31.36,83.46a59.6,59.6,0,0,1-4.18,8.82,63.85,63.85,0,0,1-4.71,7.8,64.78,64.78,0,0,1-5.68,7,63.08,63.08,0,0,1-7.12,6.07,68.37,68.37,0,0,1-7.85,5c-27.38,13-64.38,9-86.44-11.4a67.24,67.24,0,0,1-6.11-7.47,65,65,0,0,1-5.58-9.5A55.59,55.59,0,0,1,270.32,567,71.3,71.3,0,0,1,269.77,558.47Z" fill="#ffffff" stroke="#592d3d" stroke-miterlimit="10" stroke-width="12px"></path><circle cx="338.51" cy="559.08" r="12.24" fill="#592d3d"></circle><line x1="715.03" y1="559.08" x2="603.4" y2="559.08" fill="none" stroke="#592d3d" stroke-linecap="round" stroke-miterlimit="10" stroke-width="16px"></line><path d="M627,574.16a114.14,114.14,0,0,1,13.07-1.56c4.36-.3,8.72-.43,13.08-.44s8.71.14,13.07.43a114.34,114.34,0,0,1,13.08,1.57,112.18,112.18,0,0,1-13.08,1.58q-6.54.43-13.07.42t-13.08-.43A112,112,0,0,1,627,574.16Z" fill="#592d3d"></path><path d="M443.14,621.86c0-18.9,113.72-16.06,113.72,0a56.86,56.86,0,0,1-113.72,0Z" fill="#592d3d"></path><path d="M495,643c-16.95-1-31.73,6.75-36.65,18.22a56.86,56.86,0,0,0,65.14,12.53A55.39,55.39,0,0,0,530,670.2C529.08,656.09,514.06,644.18,495,643Z" fill="#f28195"></path><path d="M443.14,621.86c0-18.9,113.72-16.06,113.72,0a56.86,56.86,0,0,1-113.72,0Z" fill="none" stroke="#592d3d" stroke-miterlimit="10" stroke-width="6px"></path><path d="M478.12,632.46c.45-.11.63-.16.92-.21l.75-.14c.49-.09,1-.14,1.46-.18a21.54,21.54,0,0,1,2.89-.1,25,25,0,0,1,5.79.81,21.4,21.4,0,0,1,10.35,6.1,20.18,20.18,0,0,1,5.08,10.16A17.27,17.27,0,0,1,504,659.25c-2.07-2.93-3.66-5.56-5.32-7.76a28.41,28.41,0,0,0-2.45-3,14.06,14.06,0,0,0-2.7-2.16,15.48,15.48,0,0,0-6.11-2.09A29.5,29.5,0,0,0,484,644c-.59,0-1.18,0-1.76.05l-.85.06-.39,0c-.1,0-.3,0-.23,0Z" fill="#592d3d"></path><path d="M558.73,399.34c-12.86,24-60,37.44-63.83,31.42-4.29-6.73,37.85-55.32,13.9-106.14" fill="#C6854E"></path><path d="M784,342.85c-5.1-5.1-31.06,1.83-57.19-.23A281,281,0,0,0,505.63,228.28c-2.44-20.48-.75-37.68-2.61-40.1-2.49-3.22-15.49,12.68-18.87,31-11.91-15-32.14-23-32.72-18.8-.38,2.68,7.44,14.09,14.81,29.9-111.6,13.47-203.08,92.26-235.08,197-13.86,11.92-26.86,20.34-27,25.69-.27,9.92,39.31,9.36,56.58,7.82v-.06c60.65-2,179-13.78,236.42-72.89C491.64,406.93,481.47,421,483.43,424c3,4.67,38.32-5.19,50.07-23.24,48,19.59,139.49,43.16,219-16.16l-.22-.43C766.77,372.06,790.35,349.25,784,342.85Z" fill="#592d3d"></path><path d="M726.85,348.62c-5.4.24-10.66.11-16-.14s-10.59-.67-15.87-1.26c-2.64-.29-5.28-.6-7.91-1s-5.27-.72-7.89-1.23a76.91,76.91,0,0,1-15.58-4.54,91.87,91.87,0,0,1,16-2.62c2.63-.22,5.26-.37,7.89-.48l7.88-.34c5.25-.22,10.49-.34,15.72-.45s10.48-.12,15.62,0Z" fill="#592d3d"></path><path d="M236.6,430s0,.24,0,.39l-.12.53-.28,1.11c-.21.75-.43,1.52-.66,2.29-.47,1.55-1,3.14-1.54,4.75s-1.06,3.28-1.77,5a20.6,20.6,0,0,1-1.38,2.6,17.91,17.91,0,0,1-2.07,2.77,13.14,13.14,0,0,1-3.72-5.47,16.11,16.11,0,0,1-.76-2.9c-.21-1-.31-2-.43-2.95a30,30,0,0,1,0-6,24.44,24.44,0,0,1,.48-3c.12-.5.25-1,.41-1.51a7.84,7.84,0,0,1,.27-.77c.1-.28.18-.48.36-.9Z" fill="#592d3d"></path><path d="M260.74,460.82v-.06c17-.56,38.63-1.9,62.14-4.84,2.63-55.92,22-121.58,65.92-198.44h0L382,254.23A282.15,282.15,0,0,0,231.16,427.31c-13.86,11.92-26.86,20.34-27,25.69C203.89,462.92,243.47,462.36,260.74,460.82Z" fill="#592d3d"></path><path d="M784,342.85c-5.1-5.1-31.06,1.83-57.19-.23A281,281,0,0,0,505.63,228.28c-2.44-20.48-.75-37.68-2.61-40.1-2.49-3.22-15.49,12.68-18.87,31-11.91-15-32.14-23-32.72-18.8-.38,2.68,7.44,14.09,14.81,29.9-111.6,13.47-203.08,92.26-235.08,197-13.86,11.92-26.86,20.34-27,25.69-.27,9.92,39.31,9.36,56.58,7.82v-.06c60.65-2,179-13.78,236.42-72.89C491.64,406.93,481.47,421,483.43,424c3,4.67,38.32-5.19,50.07-23.24,48,19.59,139.49,43.16,219-16.16l-.22-.43C766.77,372.06,790.35,349.25,784,342.85Z" fill="none" stroke="#592d3d" stroke-miterlimit="10" stroke-width="12px"></path><path d="M505.93,244.31a367.42,367.42,0,0,0-42.48,4.94c-3.48.67-6.95,1.41-10.44,2.05s-6.9,1.61-10.35,2.41l-10.26,2.72c-3.4,1-6.77,2.08-10.15,3.12a314.12,314.12,0,0,0-39.43,15.73,348.31,348.31,0,0,0-37.25,21,183.85,183.85,0,0,1,35.08-25.14,219.23,219.23,0,0,1,39.76-17.29c3.48-1,6.94-2.09,10.42-3.05s7-1.82,10.55-2.6,7.1-1.4,10.66-2,7.15-1.07,10.73-1.52A190,190,0,0,1,505.93,244.31Z" fill="#ffffff"></path><path d="M407.29,474.84H286.65c-5.56,0-11.12-.08-16.68,0h-.24c-5.23,0-10.24,4.6-10,10a10.17,10.17,0,0,0,10,10H390.37c5.55,0,11.12.08,16.68,0h.24c5.23,0,10.24-4.6,10-10a10.18,10.18,0,0,0-10-10Z" fill="#592d3d"></path><path d="M726.32,474.84H605.68c-5.56,0-11.12-.08-16.68,0h-.24c-5.23,0-10.24,4.6-10,10a10.17,10.17,0,0,0,10,10H709.4c5.56,0,11.12.08,16.68,0h.24c5.23,0,10.24-4.6,10-10a10.18,10.18,0,0,0-10-10Z" fill="#592d3d"></path><g transform="scale(1)" style="transform-origin: center center;"><circle cx="491.44" cy="157.14" r="47.48" fill="#85c5e5"></circle><path d="M491.44,204.62a47.47,47.47,0,0,0,46.46-57.31c-30.78-4.77-62.7-2-93.77,6-.1,1.26-.17,2.53-.17,3.82A47.48,47.48,0,0,0,491.44,204.62Z" fill="#67B7D6"></path><circle cx="491.44" cy="157.14" r="47.48" fill="none" stroke="#592d3d" stroke-miterlimit="10" stroke-width="12px"></circle><path d="M240.26,423.13a254.67,254.67,0,0,1,6.54-57.5q1.29-5.55,2.81-11c2.9-32.3,20-58.94,42.86-82.73,4.76-3.81,5.71-12.37,10.47-17.13,16.18-14.27,30.45-28.55,48.53-40,74.22-47.58,172.23-73.27,251.21-29.5,16.17,8.56,34.25,13.32,47.57,24.74,25.7,21.88,43.77,47.58,69.47,68.51,22.83,19,26.64,49.48,34.74,76.07q1.53,5.44,2.81,11a254.67,254.67,0,0,1,6.54,57.5Z" fill="#85c5e5"></path><path d="M246.8,365.63a254.67,254.67,0,0,0-6.54,57.5h83C321.7,342.47,301,275.11,406,193,330.68,221.59,262.05,284.38,246.8,365.63Z" fill="#67B7D6"></path><path d="M258.18,321.12a109.41,109.41,0,0,0-8.57,33.51q-1.52,5.44-2.81,11a254.67,254.67,0,0,0-6.54,57.5H440.31a827.17,827.17,0,0,1,127.59,0H763.81a254.67,254.67,0,0,0-6.54-57.5q-1.29-5.55-2.81-11c-3.46-11.37-6.15-23.44-9.86-35C582.71,259.73,419,261,258.18,321.12Z" fill="#67B7D6"></path><path d="M240.26,423.13a254.67,254.67,0,0,1,6.54-57.5q1.29-5.55,2.81-11c2.9-32.3,20-58.94,42.86-82.73,4.76-3.81,5.71-12.37,10.47-17.13,16.18-14.27,30.45-28.55,48.53-40,74.22-47.58,172.23-73.27,251.21-29.5,16.17,8.56,34.25,13.32,47.57,24.74,25.7,21.88,43.77,47.58,69.47,68.51,22.83,19,26.64,49.48,34.74,76.07q1.53,5.44,2.81,11a254.67,254.67,0,0,1,6.54,57.5Z" fill="none" stroke="#592d3d" stroke-miterlimit="10" stroke-width="12px"></path><path d="M225.35,356.43c183.42-78,371.14-79.06,555.94,0,17.53,7.5,17.43,139.87,0,133.81-180.47-62.83-371.33-63.5-555.94,0C203.39,497.79,205.53,364.86,225.35,356.43Z" fill="#85c5e5"></path><path d="M751.33,443.71a43.58,43.58,0,0,1,1.35,9.9c.09,3.27-.11,6.52-.26,9.78l-.36,4.87c-.16,1.62-.32,3.24-.52,4.85-.4,3.23-.89,6.44-1.59,9.61l-7.87-1.41c.44-3.17,1-6.31,1.64-9.45l1-4.71,1-4.7c.74-3.13,1.37-6.27,2.22-9.4A53.94,53.94,0,0,1,751.33,443.71Z" fill="#592d3d"></path><path d="M749.91,342.47a175.32,175.32,0,0,1,3.63,19c.43,3.19.78,6.39,1.09,9.59s.49,6.42.66,9.63c.26,6.42.37,12.84.06,19.25a114.35,114.35,0,0,1-2.45,19.11c-1-6.39-1.67-12.7-2.32-19s-1.21-12.55-2.05-18.78c-.39-3.12-.83-6.22-1.3-9.32s-1-6.19-1.52-9.27c-1.07-6.17-2.3-12.29-3.59-18.41Z" fill="#592d3d"></path><path d="M668.78,322c7.56,42.87,6.71,89.49,0,138.73" fill="none" stroke="#592d3d" stroke-miterlimit="10" stroke-width="8px"></path><path d="M598.19,307.61c5.15,42.9,4.57,89.55,0,138.83" fill="none" stroke="#592d3d" stroke-miterlimit="10" stroke-width="8px"></path><path d="M533.85,356.47a172.75,172.75,0,0,1,2.37,20.68c.4,6.9.52,13.8.65,20.71l0,10.36c0,3.45,0,6.9-.12,10.35-.15,6.9-.4,13.8-.87,20.69l-8-.4c.22-6.87.57-13.73.94-20.59l1.21-20.57c.46-6.86.82-13.73,1.35-20.6S532.69,363.36,533.85,356.47Z" fill="#592d3d"></path><path d="M535.93,299.88a58.54,58.54,0,0,1,.28,6.35c0,1.06-.05,2.12-.08,3.18L536,312.6c-.17,2.12-.32,4.25-.68,6.38a22.42,22.42,0,0,1-2.08,6.41,23.29,23.29,0,0,1-2.7-6.21c-.57-2.08-.93-4.16-1.31-6.25l-.49-3.12c-.13-1.05-.28-2.09-.39-3.13a55,55,0,0,1-.35-6.29Z" fill="#592d3d"></path><path d="M467.76,299.65c.35,43,.31,89.67,0,139" fill="none" stroke="#592d3d" stroke-miterlimit="10" stroke-width="8px"></path><path d="M403.38,306.18c-2.06,43-1.83,89.73,0,139.11" fill="none" stroke="#592d3d" stroke-miterlimit="10" stroke-width="8px"></path><path d="M333.37,391.65a161.31,161.31,0,0,1,2.71,16.78c.63,5.59,1.09,11.17,1.65,16.75l1.51,16.73c.47,5.57.93,11.15,1.25,16.74l-8,.64c-.58-5.61-.93-11.24-1.18-16.87-.13-2.82-.2-5.64-.28-8.46l-.1-8.46c0-5.64.05-11.29.35-16.93A117.52,117.52,0,0,1,333.37,391.65Z" fill="#592d3d"></path><path d="M340.48,320.18c-.25,3.65-.64,7.28-1.05,10.91l-.66,5.45-.72,5.45c-.54,3.64-.95,7.28-1.6,10.93a67.39,67.39,0,0,1-2.8,10.92,55.71,55.71,0,0,1-2-11.14c-.3-3.72-.32-7.42-.38-11.14l0-5.56c.06-1.86.11-3.71.2-5.56.2-3.71.49-7.41,1-11.09Z" fill="#592d3d"></path><path d="M264.86,340.45c-6.86,43-6.09,89.85,0,139.3" fill="none" stroke="#592d3d" stroke-miterlimit="10" stroke-width="8px"></path><path d="M753.07,434.58a3.75,3.75,0,1,0-3.75-3.75,3.8,3.8,0,0,0,3.75,3.75Z" fill="#592d3d"></path><path d="M758.28,341.38c10,42.84,8.85,89.43,0,138.64" fill="none" stroke="#67B7D6" stroke-miterlimit="10" stroke-width="8px"></path><path d="M681,320c7.56,42.87,6.71,89.49,0,138.74" fill="none" stroke="#67B7D6" stroke-miterlimit="10" stroke-width="8px"></path><path d="M610.38,305.45c5.15,42.9,4.57,89.55,0,138.83" fill="none" stroke="#67B7D6" stroke-miterlimit="10" stroke-width="8px"></path><path d="M544.06,297.82c2.74,42.92,2.44,89.61,0,138.92" fill="none" stroke="#67B7D6" stroke-miterlimit="10" stroke-width="8px"></path><path d="M479.8,297.16c.34,42.95.31,89.67,0,139" fill="none" stroke="#67B7D6" stroke-miterlimit="10" stroke-width="8px"></path><path d="M415.34,303.53c-2.06,43-1.83,89.73,0,139.11" fill="none" stroke="#67B7D6" stroke-miterlimit="10" stroke-width="8px"></path><path d="M348.41,317c-4.46,43-4,89.79,0,139.21" fill="none" stroke="#67B7D6" stroke-miterlimit="10" stroke-width="8px"></path><path d="M276.74,337.64c-6.86,43-6.09,89.85,0,139.3" fill="none" stroke="#67B7D6" stroke-miterlimit="10" stroke-width="8px"></path><path d="M225.35,356.43c183.42-78,371.14-79.06,555.94,0,17.53,7.5,17.43,139.87,0,133.81-180.47-62.83-371.33-63.5-555.94,0C203.39,497.79,205.53,364.86,225.35,356.43Z" fill="none" stroke="#592d3d" stroke-miterlimit="10" stroke-width="12px"></path><path d="M426.76,283.72A328.8,328.8,0,0,1,465.37,278c3.25-.28,6.49-.56,9.74-.78l9.75-.56c3.26-.14,6.51-.2,9.77-.3l9.77-.13c13,0,26.05.63,39,1.84a324.4,324.4,0,0,1,38.6,5.8c-13-.29-26-.79-38.88-1.13s-25.84-.49-38.75-.52h-9.68c-3.23,0-6.46.12-9.69.11l-9.68.14c-3.23.11-6.46.16-9.7.2C452.72,283,439.78,283.46,426.76,283.72Z" fill="#592d3d"></path><path d="M347.31,233.83a183.71,183.71,0,0,1,22.38-15.33c7.78-4.62,15.81-8.84,24-12.66,2-1,4.13-1.86,6.2-2.78s4.13-1.86,6.24-2.67c4.22-1.65,8.4-3.38,12.7-4.8a217,217,0,0,1,26.06-7.5c-2.07.91-4.16,1.78-6.25,2.63s-4.19,1.64-6.25,2.56c-4.15,1.74-8.31,3.42-12.43,5.22l-3.09,1.33c-1,.43-2.08.85-3.1,1.32l-6.15,2.73c-2.06.88-4.09,1.83-6.14,2.75s-4.09,1.84-6.1,2.83l-6.1,2.83c-2,1-4,2-6.05,3-4,1.94-8,4-12.05,6C363.19,225.31,355.23,229.48,347.31,233.83Z" fill="#ffffff"></path></g><circle cx="338.9" cy="548.55" r="93.31" fill="white" opacity="0.2"></circle><path d="M744.47,606.82a103.27,103.27,0,0,1-188.33-51.49c-37-14.6-74.43-14.47-114.19.39a103.43,103.43,0,0,1-103,96.13c-32.48,0-76-36.5-71-28.39,14,20.69,47,36.45,72.54,36.45,54.55,0,97.87-39.29,101.56-92.92,39.76-14.85,77.23-15,114.19-.39,3.5,53.82,48.39,93.53,103.07,93.53C704,660.13,729.4,626,744.47,606.82Z" opacity="0.15"></path><path d="M320,648.75,443.07,525.67a93.05,93.05,0,0,0-10-17.27L302.72,638.76A93.1,93.1,0,0,0,320,648.75Z" fill="white" opacity="0.4"></path><circle cx="338.9" cy="548.55" r="93.31" fill="none" stroke="#592d3d" stroke-miterlimit="10" stroke-width="20px"></circle><circle cx="659.21" cy="548.55" r="93.31" fill="none" stroke="#592d3d" stroke-miterlimit="10" stroke-width="20px"></circle><path d="M432.77,548.55c45.2-18.31,89.61-19,133.14,0" fill="none" stroke="#592d3d" stroke-miterlimit="10" stroke-width="20px"></path><path d="M314.7,492.5c2.06,6.5-5.94,11.5-11.94,12.5-6,0-10-4-12-9-1-5,0-10,4-13,5-2,12-4,16.45,1.13A11.66,11.66,0,0,1,314.7,492.5Z" fill="white"></path><path d="M325.37,488.67c-.61,4.33-6.61,4.33-7.61.33,0-3,1-4,3.85-4.1A3.76,3.76,0,0,1,325.37,488.67Z" fill="white"></path><circle cx="659.21" cy="548.55" r="93.31" fill="white" opacity="0.2"></circle><path d="M645.19,640.81,751.47,534.52a94.74,94.74,0,0,0-2.41-11.22L634,638.4A94.31,94.31,0,0,0,645.19,640.81Z" fill="white" opacity="0.4"></path><circle cx="659.21" cy="548.55" r="93.31" fill="none" stroke="#592d3d" stroke-miterlimit="10" stroke-width="20px"></circle><path d="M635,492.5c2.06,6.5-5.94,11.5-11.94,12.5-6,0-10-4-12-9-1-5,0-10,4-13,5-2,12-4,16.45,1.13A11.7,11.7,0,0,1,635,492.5Z" fill="white"></path><path d="M645.69,488.67c-.61,4.33-6.61,4.33-7.61.33,0-3,1-4,3.84-4.1A3.77,3.77,0,0,1,645.69,488.67Z" fill="white"></path></g></svg>