<svg width="95" height="16" viewBox="0 0 95 16" fill="none" xmlns="http://www.w3.org/2000/svg">
<path d="M12.582 10.966L10.818 9.184C10.326 9.64 9.828 10 9.324 10.264C8.832 10.528 8.226 10.66 7.506 10.66C6.966 10.66 6.468 10.558 6.012 10.354C5.568 10.138 5.184 9.85 4.86 9.49C4.548 9.13 4.302 8.71 4.122 8.23C3.942 7.75 3.852 7.24 3.852 6.7V6.664C3.852 6.124 3.942 5.62 4.122 5.152C4.302 4.672 4.554 4.252 4.878 3.892C5.202 3.532 5.586 3.25 6.03 3.046C6.486 2.842 6.978 2.74 7.506 2.74C8.142 2.74 8.712 2.866 9.216 3.118C9.732 3.37 10.236 3.718 10.728 4.162L12.492 2.128C12.204 1.84 11.892 1.576 11.556 1.336C11.22 1.096 10.854 0.891999 10.458 0.723999C10.062 0.555999 9.618 0.423999 9.126 0.327999C8.646 0.232 8.112 0.184 7.524 0.184C6.552 0.184 5.664 0.358 4.86 0.705999C4.056 1.042 3.366 1.51 2.79 2.11C2.214 2.698 1.764 3.388 1.44 4.18C1.116 4.96 0.954 5.8 0.954 6.7V6.736C0.954 7.636 1.116 8.482 1.44 9.274C1.764 10.066 2.214 10.756 2.79 11.344C3.366 11.92 4.05 12.376 4.842 12.712C5.634 13.048 6.492 13.216 7.416 13.216C8.028 13.216 8.58 13.162 9.072 13.054C9.564 12.958 10.014 12.814 10.422 12.622C10.842 12.418 11.226 12.178 11.574 11.902C11.922 11.626 12.258 11.314 12.582 10.966ZM20.3271 6.034V3.172C19.5111 3.136 18.8631 3.316 18.3831 3.712C17.9031 4.108 17.5251 4.636 17.2491 5.296V3.352H14.5131V13H17.2491V9.436C17.2491 8.272 17.5071 7.414 18.0231 6.862C18.5511 6.31 19.2711 6.034 20.1831 6.034H20.3271ZM31.2165 3.352H28.3725L26.2665 9.922L24.0705 3.352H21.1725L24.9525 13.036C24.8325 13.276 24.7005 13.438 24.5565 13.522C24.4245 13.618 24.2385 13.666 23.9985 13.666C23.8185 13.666 23.6205 13.63 23.4045 13.558C23.2005 13.486 23.0085 13.396 22.8285 13.288L21.9105 15.268C22.2585 15.472 22.6245 15.634 23.0085 15.754C23.3925 15.874 23.8365 15.934 24.3405 15.934C24.7485 15.934 25.1085 15.886 25.4205 15.79C25.7325 15.694 26.0085 15.538 26.2485 15.322C26.5005 15.106 26.7285 14.824 26.9325 14.476C27.1365 14.14 27.3285 13.726 27.5085 13.234L31.2165 3.352ZM42.9635 8.194V8.158C42.9635 7.354 42.8375 6.646 42.5855 6.034C42.3455 5.41 42.0215 4.888 41.6135 4.468C41.2055 4.036 40.7375 3.712 40.2095 3.496C39.6815 3.28 39.1355 3.172 38.5715 3.172C37.8515 3.172 37.2515 3.322 36.7715 3.622C36.3035 3.91 35.9015 4.282 35.5655 4.738V3.352H32.8295V15.88H35.5655V11.74C35.8895 12.124 36.2855 12.46 36.7535 12.748C37.2335 13.036 37.8395 13.18 38.5715 13.18C39.1475 13.18 39.6995 13.072 40.2275 12.856C40.7555 12.64 41.2175 12.322 41.6135 11.902C42.0215 11.47 42.3455 10.948 42.5855 10.336C42.8375 9.712 42.9635 8.998 42.9635 8.194ZM40.2275 8.194C40.2275 8.602 40.1615 8.968 40.0295 9.292C39.9095 9.616 39.7415 9.898 39.5255 10.138C39.3095 10.366 39.0575 10.546 38.7695 10.678C38.4935 10.798 38.1935 10.858 37.8695 10.858C37.5455 10.858 37.2395 10.798 36.9515 10.678C36.6755 10.546 36.4295 10.366 36.2135 10.138C36.0095 9.898 35.8415 9.616 35.7095 9.292C35.5895 8.956 35.5295 8.59 35.5295 8.194V8.158C35.5295 7.762 35.5895 7.402 35.7095 7.078C35.8415 6.742 36.0095 6.46 36.2135 6.232C36.4295 5.992 36.6755 5.812 36.9515 5.692C37.2395 5.56 37.5455 5.494 37.8695 5.494C38.1935 5.494 38.4935 5.56 38.7695 5.692C39.0575 5.812 39.3095 5.992 39.5255 6.232C39.7415 6.46 39.9095 6.742 40.0295 7.078C40.1615 7.402 40.2275 7.762 40.2275 8.158V8.194ZM50.394 12.604V10.408C49.974 10.636 49.524 10.75 49.044 10.75C48.456 10.75 48.162 10.438 48.162 9.814V5.692H50.43V3.352H48.162V0.885999H45.426V3.352H44.274V5.692H45.426V10.264C45.426 10.828 45.492 11.296 45.624 11.668C45.768 12.028 45.96 12.322 46.2 12.55C46.452 12.778 46.746 12.934 47.082 13.018C47.43 13.114 47.814 13.162 48.234 13.162C48.69 13.162 49.092 13.108 49.44 13C49.788 12.904 50.106 12.772 50.394 12.604ZM62.4187 8.194V8.158C62.4187 7.462 62.2867 6.814 62.0227 6.214C61.7587 5.602 61.3927 5.074 60.9247 4.63C60.4687 4.174 59.9227 3.82 59.2867 3.568C58.6507 3.304 57.9607 3.172 57.2167 3.172C56.4607 3.172 55.7647 3.304 55.1287 3.568C54.4927 3.832 53.9407 4.192 53.4727 4.648C53.0047 5.104 52.6387 5.638 52.3747 6.25C52.1107 6.85 51.9787 7.498 51.9787 8.194V8.23C51.9787 8.926 52.1107 9.58 52.3747 10.192C52.6387 10.792 52.9987 11.32 53.4547 11.776C53.9227 12.22 54.4747 12.574 55.1107 12.838C55.7467 13.09 56.4367 13.216 57.1807 13.216C57.9367 13.216 58.6327 13.084 59.2687 12.82C59.9047 12.556 60.4567 12.196 60.9247 11.74C61.3927 11.284 61.7587 10.756 62.0227 10.156C62.2867 9.544 62.4187 8.89 62.4187 8.194ZM59.7187 8.23C59.7187 8.59 59.6587 8.932 59.5387 9.256C59.4307 9.568 59.2687 9.844 59.0527 10.084C58.8367 10.324 58.5727 10.516 58.2607 10.66C57.9607 10.792 57.6127 10.858 57.2167 10.858C56.8327 10.858 56.4847 10.786 56.1727 10.642C55.8727 10.498 55.6087 10.306 55.3807 10.066C55.1527 9.814 54.9787 9.532 54.8587 9.22C54.7387 8.896 54.6787 8.554 54.6787 8.194V8.158C54.6787 7.798 54.7327 7.462 54.8407 7.15C54.9607 6.826 55.1287 6.544 55.3447 6.304C55.5607 6.064 55.8187 5.878 56.1187 5.746C56.4307 5.602 56.7847 5.53 57.1807 5.53C57.5527 5.53 57.8947 5.602 58.2067 5.746C58.5187 5.89 58.7887 6.088 59.0167 6.34C59.2447 6.58 59.4187 6.862 59.5387 7.186C59.6587 7.498 59.7187 7.834 59.7187 8.194V8.23ZM76.1538 13L70.7898 5.746L75.9198 0.399999H72.5718L67.4598 5.908V0.399999H64.6878V13H67.4598V9.148L68.9178 7.636L72.8238 13H76.1538ZM86.5482 8.446V8.41C86.5482 7.726 86.4522 7.072 86.2602 6.448C86.0802 5.812 85.7922 5.254 85.3962 4.774C85.0122 4.282 84.5262 3.892 83.9382 3.604C83.3502 3.316 82.6542 3.172 81.8502 3.172C81.1422 3.172 80.4942 3.304 79.9062 3.568C79.3302 3.832 78.8322 4.192 78.4122 4.648C77.9922 5.104 77.6622 5.638 77.4222 6.25C77.1942 6.862 77.0802 7.51 77.0802 8.194V8.23C77.0802 8.974 77.2062 9.652 77.4582 10.264C77.7102 10.864 78.0582 11.386 78.5022 11.83C78.9582 12.274 79.4922 12.616 80.1042 12.856C80.7282 13.096 81.4002 13.216 82.1202 13.216C82.9962 13.216 83.7582 13.06 84.4062 12.748C85.0542 12.424 85.6062 11.98 86.0622 11.416L84.4962 10.03C84.1122 10.378 83.7402 10.63 83.3802 10.786C83.0202 10.942 82.6122 11.02 82.1562 11.02C81.5442 11.02 81.0282 10.864 80.6082 10.552C80.2002 10.228 79.9302 9.754 79.7982 9.13H86.5122C86.5242 8.998 86.5302 8.884 86.5302 8.788C86.5422 8.692 86.5482 8.578 86.5482 8.446ZM83.8842 7.42H79.7622C79.8702 6.796 80.0982 6.298 80.4462 5.926C80.8062 5.554 81.2742 5.368 81.8502 5.368C82.4262 5.368 82.8882 5.56 83.2362 5.944C83.5842 6.316 83.8002 6.808 83.8842 7.42ZM94.0053 12.604V10.408C93.5853 10.636 93.1353 10.75 92.6553 10.75C92.0673 10.75 91.7733 10.438 91.7733 9.814V5.692H94.0413V3.352H91.7733V0.885999H89.0373V3.352H87.8853V5.692H89.0373V10.264C89.0373 10.828 89.1033 11.296 89.2353 11.668C89.3793 12.028 89.5713 12.322 89.8113 12.55C90.0633 12.778 90.3573 12.934 90.6933 13.018C91.0413 13.114 91.4253 13.162 91.8453 13.162C92.3013 13.162 92.7033 13.108 93.0513 13C93.3993 12.904 93.7173 12.772 94.0053 12.604Z" fill="#1B1A21"/>
</svg>
